<svg id="Capa_1" enable-background="new 0 0 512 512" height="512" viewBox="0 0 512 512" width="512" xmlns="http://www.w3.org/2000/svg"><g><g><g clip-rule="evenodd" fill-rule="evenodd"><path d="m120.999 241h300.001v-218.5c0-8.248-6.75-15-15-15h-270.001c-8.25 0-15 6.75-15 15z" fill="#c7efbc"/><path d="m421 241h-300v218.5c0 8.25 6.755 15 15 15h270c8.248 0 15-6.752 15-15z" fill="#fff"/><path d="m120.999 241h300.001-277.501l.001-218.5c0-8.25 6.75-15 15-15h-22.5c-8.25 0-15 6.75-15 15z" fill="#8edf78"/><path d="m143.499 241h-22.499v218.5c0 8.25 6.755 15 15 15h22.5c-8.245 0-15-6.75-15-15v-218.5z" fill="#b6e6fa"/><path d="m121 271v-233.5h-15c-8.25 0-15 6.75-15 15v218.5z" fill="#83c8f1"/><path d="m121 271h-30v218.5c0 8.25 6.755 15 15 15h270.001c8.248 0 15-6.752 15-15v-15h-255.002c-8.245 0-15-6.75-15-15v-188.5z" fill="#b6e6fa"/></g><g><path d="m398.5 75h-15v-15h15zm0-30h-15v-15h15z" fill="#fff"/></g></g><g><path d="m406 0h-270c-12.407 0-22.5 10.094-22.5 22.5v7.5h-7.5c-12.406 0-22.5 10.094-22.5 22.5v437c0 12.406 10.093 22.5 22.5 22.5h202.501v-15h-202.501c-4.135 0-7.5-3.364-7.5-7.5v-211h15v181c0 12.406 10.093 22.5 22.5 22.5h247.5v7.5c0 4.136-3.364 7.5-7.499 7.5h-22.5v15h22.5c12.406 0 22.499-10.094 22.499-22.5v-7.5h7.5c12.406 0 22.5-10.094 22.5-22.5v-437c0-12.406-10.094-22.5-22.5-22.5zm-307.5 263.5v-211c0-4.136 3.364-7.5 7.5-7.5h7.5v22.499h15v-44.999c0-4.136 3.364-7.5 7.5-7.5h270c4.136 0 7.5 3.364 7.5 7.5v211h-285v-151.001h-15v181.001zm307.5 203.5h-270c-4.136 0-7.5-3.364-7.5-7.5v-211h285v211c0 4.136-3.364 7.5-7.5 7.5z"/><path d="m188.499 335.25h75v15h-75z"/><path d="m188.499 365.25h165.001v15h-165.001z"/><path d="m188.499 395.25h75v15h-75z"/><path d="m278.499 335.25h75.001v15h-75.001z"/><path d="m188.499 305.251h165.001v15h-165.001z"/><path d="m278.499 395.25h75.001v15h-75.001z"/><path d="m212.957 151.314h39.717l8.507 22.543 14.034-5.296-35.361-93.7-13.835.012-35.671 93.659 14.018 5.339zm19.95-52.379 14.106 37.38h-28.343z"/><path d="m317.161 170.336c6.366 0 12.302-1.858 17.311-5.049v8.348h15v-71.219h-15v8.348c-5.008-3.191-10.945-5.049-17.311-5.049-17.816 0-32.311 14.494-32.311 32.311s14.495 32.31 32.311 32.31zm0-49.621c9.545 0 17.311 7.766 17.311 17.311s-7.766 17.311-17.311 17.311-17.311-7.766-17.311-17.311 7.766-17.311 17.311-17.311z"/><path d="m323.501 497h15v15h-15z"/></g></g></svg>