<svg id="Capa_1" enable-background="new 0 0 512 512" height="512" viewBox="0 0 512 512" width="512" xmlns="http://www.w3.org/2000/svg"><g><g><g><g><path d="m429.033 271-128.618 7.809-127.043-7.809v-262.574h255.661z" fill="#c4e5f9"/></g><g><path d="m193.818 250.554v-242.128h-20.446v262.574h255.661v-20.446z" fill="#a4d7f5"/></g><g><path d="m173.372 315.979h-45.405l-4.938-171.766 4.938-90.809h45.405z" fill="#d15573"/></g><g><path d="m148.413 295.533v-242.129h-20.446v262.575h45.405v-20.446z" fill="#c21d44"/></g><g><path d="m82.562 98.426h45.405v262.574h-45.405z" fill="#52cd8d"/></g><g><path d="m103.515 340.554v-242.128h-20.447v262.574h45.405v-20.446z" fill="#31a469"/></g><g><path d="m173.372 271h255.661v142.617h-255.661z" fill="#e5ecf5"/></g><g><path d="m193.818 393.667v-122.667h-20.446v142.617h255.661v-19.95z" fill="#cad8eb"/></g><g><path d="m173.372 413.617v-98.128h-45.202v142.617h255.66v-44.489z" fill="#e5ecf5"/></g><g><path d="m148.413 438.157v-122.668h-20.446v142.617h255.661v-19.949z" fill="#cad8eb"/></g><g><path d="m128.67 459.128v-98.128h-45.203v143.618h255.661v-45.49z" fill="#e5ecf5"/></g><g><path d="m103.914 484.668v-122.667h-20.447v142.617h255.661v-19.95z" fill="#cad8eb"/></g><g><path d="m368.678 148.706c.46-35.177-44.822-51.985-67.475-25.735-22.659-26.247-67.938-9.441-67.475 25.736 0 5.294 9.122 45.501 9.122 45.501 5.272 26.424 33.48 41.437 58.352 31.101 24.836 9.985 52.638-5.035 57.899-31.281 0 0 9.577-39.268 9.577-45.322z" fill="#d15573"/></g><g><g><path d="m367.041 137.085c-2.735 13.642-7.941 34.985-7.941 34.985-5.262 26.246-33.064 41.266-57.899 31.281-12.255 4.817-33.649 6.557-37.279-9.143-5.495-29.943-24.001-67.779 19.652-82.601-19.394-5.555-42.054 5.336-48.222 25.527 0-.002-.001-.005-.001-.007-1.139 3.748-1.666 7.657-1.623 11.58.895 9.723 9.298 47.27 10.626 51.034 7.51 22.778 34.363 35.234 56.848 25.568 3.629 1.459 7.321 2.37 10.998 2.804 5.185.615 10.485.249 15.502-1.04 15.272-3.911 28.012-16.143 31.4-33.045.817-6.073 13.528-46.339 7.939-56.943z" fill="#c21d44"/></g></g><g><path d="m350.835 59.239c-27.846 0-50.419 22.573-50.419 50.419v12.439c.234.256.468.512.698.776l.203-.029c13.154-15.11 33.847-15.811 48.83-6.889l.278-.039c11.153-9.248 18.257-23.21 18.257-38.83v-17.847z" fill="#52cd8d"/></g><g><path d="m368.681 59.444v-.206h-17.847c-27.925-.119-50.548 23.014-50.419 50.419v12.439c.234.256.468.512.698.776l.203-.029c11.759-14.142 33.523-16.354 48.83-6.889l.278-.039c4.431-3.674 8.209-8.102 11.17-13.072-8.53-9.722-21.862-14.819-34.679-13.376 7.225-16.499 23.023-28.388 41.766-30.023z" fill="#31a469"/></g><g><path d="m263.5 144.213h15v15h-15z" fill="#fff"/></g></g></g><g><path d="m436.826 0h-271.1v45.052h-45.478v46.075h-45.074v420.873h180.826v-15.024h-165.801v-128.805h30.049v97.754h211.002v31.051h-29.974v15.024h44.998v-46.075h45.073v-45.051h45.478v-420.874zm-346.627 353.146v-246.995h30.049v29.142h15.024v-75.217h30.454v247.997h-30.454v-157.041h-15.024v202.114zm286.124 97.755h-241.051v-127.803h30.454v97.776h210.597zm-195.573-45.052v-127.824h30.475v-15.025h-30.475v-247.976h241.051v247.976h-195.231v15.024h195.232v127.824h-241.052z"/><path d="m271.024 496.976h15.136v15.024h-15.136z"/><path d="m261.134 229.597c12.464 6.649 26.938 7.766 40.187 3.169 13.182 4.407 27.552 3.191 39.874-3.466 13.167-7.114 22.42-19.591 25.407-34.249 2.332-9.569 9.717-40.375 9.771-46.96.163-13.022-5.207-24.99-14.437-33.516 9.257-10.517 14.441-24.049 14.441-38.292v-25.387h-25.388c-31.196 0-56.707 24.754-57.953 55.65-11.134-5.513-24.406-6.249-36.975-1.48-18.404 6.983-30.134 23.883-29.882 42.955 0 5.531 6.487 34.735 9.302 47.144 2.978 14.775 12.324 27.322 25.653 34.432zm89.854-163.677h10.363v10.363c0 11.264-4.37 21.934-12.125 29.923-13.486-6.164-29.039-5.588-41.187 1.1.848-22.963 19.783-41.386 42.949-41.386zm-89.597 53.193c15.535-6.144 30.083.571 39.886 14.629 11.566-15.634 24.256-20.172 39.877-14.632 9.896 3.753 20.398 13.294 20.195 28.812v.077c-.083 3.582-9.446 43.941-9.446 43.941-2.072 10.333-8.577 19.132-17.85 24.141-10.205 5.623-22.375 5.467-32.825.551-10.461 5.072-22.696 5.324-33.022-.291-9.373-4.999-15.938-13.825-18.011-24.214l-.041-.193c-4.301-18.96-8.826-40.591-8.951-44.011-.205-15.516 10.294-25.056 20.188-28.81z"/><path d="m263.624 300.561c-16.569 0-30.049 13.48-30.049 30.049v44.956h15.024v-14.971h30.049v14.971h15.024v-44.956c0-16.569-13.479-30.049-30.048-30.049zm-15.025 45.009v-14.96c0-8.284 6.74-15.024 15.024-15.024s15.024 6.74 15.024 15.024v14.96z"/><path d="m338.906 315.724c-16.581 0-30.07 13.489-30.07 30.07s13.49 30.07 30.07 30.07c5.479 0 10.617-1.48 15.046-4.052v3.753h15.024v-29.772c0-16.58-13.489-30.069-30.07-30.069zm0 45.116c-8.296 0-15.046-6.75-15.046-15.046s6.75-15.045 15.046-15.045 15.046 6.749 15.046 15.045-6.75 15.046-15.046 15.046z"/></g></g></svg>