<?xml version="1.0" encoding="iso-8859-1"?>
<!-- Generator: Adobe Illustrator 19.0.0, SVG Export Plug-In . SVG Version: 6.00 Build 0)  -->
<svg version="1.1" id="Capa_1" xmlns="http://www.w3.org/2000/svg" xmlns:xlink="http://www.w3.org/1999/xlink" x="0px" y="0px"
	 viewBox="0 0 490 490" style="enable-background:new 0 0 490 490;" xml:space="preserve">
<path d="M484.51,271.302l-46.718-25.973l46.718-25.965c3.877-0.833,10.123-11.983,0-18.225l-46.125-25.644l46.125-25.639
	c4.901-1.887,9.027-12.641,0-18.225L250.056,1.313c-3.134-1.75-6.98-1.75-10.115,0L5.487,131.632c-8.6,4.748-5.646,16.145,0,18.225
	l46.126,25.639L5.487,201.139c-8.433,4.772-6.106,15.799,0,18.225l46.718,25.965L5.487,271.302c-8.433,4.772-6.106,15.8,0,18.226
	l46.127,25.637L5.487,340.809c-8.433,4.772-6.106,15.8,0,18.226l234.454,130.309c1.567,0.875,8.548,0.875,10.115,0L484.51,359.035
	c3.877-0.833,10.123-11.983,0-18.226l-46.127-25.644l46.127-25.637C488.387,288.695,494.633,277.545,484.51,271.302z
	 M244.999,22.347l212.993,118.397L244.999,259.141L32.006,140.745L244.999,22.347z M73.061,187.417l166.88,92.758
	c4.802,2.53,8.548,0.876,10.115,0l166.88-92.759l41.066,22.835L244.999,328.638L31.996,210.252L73.061,187.417z M458.002,349.923
	L244.999,468.309L31.996,349.923l41.068-22.836l166.877,92.75c1.567,0.875,8.548,0.875,10.115,0l166.878-92.75L458.002,349.923z
	 M244.999,398.802L31.996,280.416l41.07-22.837l-0.182-0.756l167.057,92.849c1.567,0.875,8.548,0.875,10.115,0l167.058-92.85
	l-0.182,0.757l41.07,22.837L244.999,398.802z"/>
<g>
</g>
<g>
</g>
<g>
</g>
<g>
</g>
<g>
</g>
<g>
</g>
<g>
</g>
<g>
</g>
<g>
</g>
<g>
</g>
<g>
</g>
<g>
</g>
<g>
</g>
<g>
</g>
<g>
</g>
</svg>
