<svg height="512pt" viewBox="0 -56 512.00007 512" width="512pt" xmlns="http://www.w3.org/2000/svg"><path d="m509.179688 220.765625-92.929688-165.277344c-5.941406-10.566406-19.328125-14.320312-29.894531-8.378906l-259.339844 145.816406c-10.570313 5.941407-14.320313 19.328125-8.378906 29.894531l92.929687 165.277344c5.941406 10.570313 19.324219 14.320313 29.894532 8.378906l259.339843-145.8125c10.570313-5.945312 14.320313-19.328124 8.378907-29.898437zm0 0" fill="#aad8ee"/><path d="m381.039062 50.101562-254.023437 142.824219c-10.570313 5.941407-14.320313 19.328125-8.378906 29.894531l92.929687 165.28125c5.941406 10.566407 19.324219 14.316407 29.894532 8.375l49.234374-27.679687 164.390626-192.917969c7.6875-9.019531 11.410156-20.097656 11.363281-31.109375l-23.625-42.023437zm0 0" fill="#9dcde5"/><path d="m433.011719 128.226562-144.320313-122.980468c-9.226562-7.867188-23.082031-6.757813-30.949218 2.46875l-192.96875 226.457031c-7.863282 9.226563-6.757813 23.082031 2.472656 30.949219l144.320312 122.980468c9.226563 7.863282 23.085938 6.757813 30.949219-2.472656l192.96875-226.453125c7.863281-9.230469 6.757813-23.085937-2.472656-30.949219zm0 0" fill="#ee8688"/><path d="m366.742188 104.796875c4.09375-11.121094 3.757812-22.800781-.089844-33.121094l-36.695313-31.265625-76.167969-28.054687-189.015624 221.816406c-7.863282 9.226563-6.757813 23.082031 2.472656 30.949219l144.320312 122.980468c9.226563 7.863282 23.085938 6.757813 30.949219-2.472656l36.632813-42.992187zm0 0" fill="#cf5564"/><path d="m329.558594 67.707031-177.929688-65.527343c-11.375-4.191407-23.996094 1.636718-28.1875 13.015624l-102.820312 279.1875c-4.191406 11.378907 1.636718 24 13.015625 28.191407l177.925781 65.527343c11.378906 4.1875 24-1.636718 28.191406-13.015624l102.820313-279.1875c4.191406-11.382813-1.636719-24-13.015625-28.191407zm0 0" fill="#99d1c2"/><path d="m259.273438 68.625c0-11.851562-4.351563-22.699219-11.53125-31.050781l-45.238282-16.660157h-81.167968l-100.714844 273.46875c-4.1875 11.378907 1.636718 24 13.015625 28.1875l177.929687 65.527344c11.375 4.191406 23.996094-1.636718 28.1875-13.011718l19.519532-53.003907zm0 0" fill="#75c6b9"/><path d="m211.566406 46.671875h-189.613281c-12.125 0-21.953125 9.828125-21.953125 21.953125v297.519531c0 12.125 9.828125 21.957031 21.953125 21.957031h189.613281c12.125 0 21.953125-9.832031 21.953125-21.957031v-297.519531c0-12.125-9.828125-21.953125-21.953125-21.953125zm0 0" fill="#f1cf79"/><g fill="#4e555c"><path d="m48.753906 148.679688c-4.269531 0-7.726562-3.460938-7.726562-7.726563v-12.308594c0-4.269531 3.457031-7.726562 7.726562-7.726562 4.265625 0 7.726563 3.457031 7.726563 7.726562v12.308594c0 4.265625-3.460938 7.726563-7.726563 7.726563zm0 0"/><path d="m184.765625 148.679688c-4.265625 0-7.726563-3.460938-7.726563-7.726563v-12.308594c0-4.269531 3.460938-7.726562 7.726563-7.726562 4.269531 0 7.726563 3.457031 7.726563 7.726562v12.308594c0 4.265625-3.457032 7.726563-7.726563 7.726563zm0 0"/><path d="m116.757812 155.25c-8.769531 0-17.007812-3.671875-22.601562-10.070312-2.808594-3.210938-2.480469-8.09375.734375-10.902344 3.210937-2.804688 8.09375-2.480469 10.902344.734375 2.65625 3.039062 6.65625 4.785156 10.964843 4.785156 4.3125 0 8.3125-1.746094 10.96875-4.785156 2.808594-3.214844 7.691407-3.539063 10.902344-.734375 3.214844 2.808594 3.542969 7.691406.734375 10.902344-5.59375 6.398437-13.832031 10.070312-22.605469 10.070312zm0 0"/></g></svg>