<svg id="Capa_1" enable-background="new 0 0 512 512" height="512" viewBox="0 0 512 512" width="512" xmlns="http://www.w3.org/2000/svg"><g><path d="m467 128h-15v-8.679c0-24.813-20.187-45-45-45h-362c-24.813 0-45 20.187-45 45v213.357c0 24.813 20.187 45 45 45h15v15c0 24.813 20.187 45 45 45h362c24.813 0 45-20.187 45-45v-219.678c0-24.813-20.187-45-45-45zm-437 204.679v-213.358c0-8.271 6.729-15 15-15h362c8.271 0 15 6.729 15 15v213.357c0 8.271-6.729 15-15 15h-362c-8.271.001-15-6.728-15-14.999zm452 60c0 8.271-6.729 15-15 15h-362c-8.271 0-15-6.729-15-15v-15h317c24.813 0 45-20.187 45-45v-174.679h15c8.271 0 15 6.729 15 15z"/><path d="m60 197.25h104.42v30h-104.42z"/><path d="m60 137.25h73.137v30h-73.137z"/><path d="m362 287.678h30v30h-30z"/></g></svg>