<?xml version="1.0" encoding="iso-8859-1"?>
<!-- Generator: Adobe Illustrator 19.0.0, SVG Export Plug-In . SVG Version: 6.00 Build 0)  -->
<svg version="1.1" id="Capa_1" xmlns="http://www.w3.org/2000/svg" xmlns:xlink="http://www.w3.org/1999/xlink" x="0px" y="0px"
	 viewBox="0 0 512 512" style="enable-background:new 0 0 512 512;" xml:space="preserve">
<path style="fill:#EAEAE8;" d="M431.65,102.4h-17.067c-9.429,0-17.067,7.637-17.067,17.067v247.467h51.2V119.467
	C448.717,110.037,441.079,102.4,431.65,102.4z"/>
<rect x="13.517" y="8.533" style="fill:#F0F0F0;" width="349.867" height="494.933"/>
<rect x="81.783" y="341.333" style="fill:#F9E0A0;" width="68.267" height="68.267"/>
<path style="fill:#289F87;" d="M107.383,170.667c-1.971,0-3.959-0.683-5.547-2.057l-25.6-21.939l11.102-12.962l20.045,17.186
	l54.187-46.438l11.102,12.962l-59.733,51.2C111.343,169.984,109.355,170.667,107.383,170.667z"/>
<polygon style="fill:#C7463B;" points="156.083,227.9 144.017,215.834 115.917,243.934 87.817,215.834 75.75,227.9 103.851,256 
	75.75,284.1 87.817,296.166 115.917,268.066 144.017,296.166 156.083,284.1 127.983,256 "/>
<g>
	<rect x="201.25" y="128" style="fill:#B9B9B9;" width="102.4" height="17.067"/>
	<rect x="201.25" y="247.467" style="fill:#B9B9B9;" width="102.4" height="17.067"/>
	<rect x="201.25" y="366.933" style="fill:#B9B9B9;" width="102.4" height="17.067"/>
</g>
<polygon style="fill:#DBDBDB;" points="397.517,375.467 423.117,418.133 448.717,375.467 448.717,366.933 397.517,366.933 "/>
<rect x="397.517" y="281.6" style="fill:#208673;" width="51.2" height="85.333"/>
<rect x="397.517" y="162.133" style="fill:#289F87;" width="51.2" height="119.467"/>
<path style="fill:#787D82;" d="M492.817,252.203l-17.067-25.6c-0.93-1.399-1.434-3.055-1.434-4.736v-51.2h-76.8V153.6h85.333
	c4.719,0,8.533,3.823,8.533,8.533v57.148l15.633,23.45L492.817,252.203z"/>
<rect x="397.517" y="136.533" style="fill:#DBDBDB;" width="51.2" height="17.067"/>
<rect x="397.517" y="366.933" style="fill:#B9B9B9;" width="51.2" height="8.533"/>
<path d="M13.517,512h349.867c4.719,0,8.533-3.823,8.533-8.533V8.533c0-4.71-3.814-8.533-8.533-8.533H13.517
	C8.798,0,4.983,3.823,4.983,8.533v494.933C4.983,508.177,8.798,512,13.517,512z M22.05,17.067h332.8v477.867H22.05V17.067z"/>
<path d="M150.05,332.8H81.783c-4.719,0-8.533,3.823-8.533,8.533V409.6c0,4.71,3.814,8.533,8.533,8.533h68.267
	c4.719,0,8.533-3.823,8.533-8.533v-68.267C158.583,336.623,154.769,332.8,150.05,332.8z M141.517,401.067h-51.2v-51.2h51.2V401.067z
	"/>
<path d="M107.383,150.895L87.33,133.709l-11.093,12.962l25.6,21.939c1.587,1.374,3.575,2.057,5.547,2.057s3.959-0.683,5.547-2.057
	l59.733-51.2l-11.102-12.962L107.383,150.895z"/>
<polygon points="87.817,296.166 115.917,268.066 144.017,296.166 156.083,284.1 127.983,256 156.083,227.9 144.017,215.834 
	115.917,243.934 87.817,215.834 75.75,227.9 103.851,256 75.75,284.1 "/>
<rect x="201.25" y="128" width="102.4" height="17.067"/>
<rect x="201.25" y="247.467" width="102.4" height="17.067"/>
<rect x="201.25" y="366.933" width="102.4" height="17.067"/>
<path d="M415.804,422.528c1.536,2.569,4.309,4.139,7.313,4.139s5.777-1.57,7.313-4.139l25.6-42.667
	c0.802-1.331,1.22-2.85,1.22-4.395v-204.8h17.067v51.2c0,1.681,0.503,3.337,1.434,4.736l17.067,25.6l14.199-9.463l-15.633-23.458
	v-57.148c0-4.71-3.814-8.533-8.533-8.533h-25.6v-34.133c0-14.114-11.486-25.6-25.6-25.6h-17.067c-14.114,0-25.6,11.486-25.6,25.6
	v256c0,1.545,0.418,3.063,1.22,4.395L415.804,422.528z M423.117,401.545l-15.65-26.078h31.3L423.117,401.545z M406.05,358.4v-68.267
	h34.133V358.4H406.05z M440.183,273.067H406.05v-102.4h34.133V273.067z M414.583,110.933h17.067c4.71,0,8.533,3.831,8.533,8.533
	V153.6H406.05v-34.133C406.05,114.765,409.873,110.933,414.583,110.933z"/>
<g>
</g>
<g>
</g>
<g>
</g>
<g>
</g>
<g>
</g>
<g>
</g>
<g>
</g>
<g>
</g>
<g>
</g>
<g>
</g>
<g>
</g>
<g>
</g>
<g>
</g>
<g>
</g>
<g>
</g>
</svg>
